<?xml version="1.0" encoding="utf-8"?>
<!-- Generator: Adobe Illustrator 26.0.0, SVG Export Plug-In . SVG Version: 6.00 Build 0)  -->
<svg version="1.1" id="Layer_1" xmlns="http://www.w3.org/2000/svg" xmlns:xlink="http://www.w3.org/1999/xlink" x="0px" y="0px"
	 viewBox="0 0 24 24" style="enable-background:new 0 0 24 24;" xml:space="preserve">
<style type="text/css">
	.st0{fill:#FFFFFF;}
</style>
<g>
	<g>
		<path class="st0" d="M-16.8-13.9h-8.3c-3,0-5.4,2.4-5.4,5.4v8.1c0,3,2.4,5.4,5.4,5.4h8.3c3,0,5.4-2.4,5.4-5.4v-8.1
			C-11.4-11.5-13.9-13.9-16.8-13.9z M-13.2-0.4c0,2-1.6,3.7-3.7,3.7h-8.3c-2,0-3.7-1.6-3.7-3.7v-8.1c0-2,1.6-3.7,3.7-3.7h8.3
			c2,0,3.7,1.6,3.7,3.7V-0.4z"/>
		<path class="st0" d="M-21-9.4c-2.7,0-5,2.2-5,5c0,2.7,2.2,5,5,5c2.7,0,5-2.2,5-5C-16-7.2-18.3-9.4-21-9.4z M-21-1.2
			c-1.8,0-3.2-1.4-3.2-3.2c0-1.8,1.4-3.2,3.2-3.2c1.8,0,3.2,1.4,3.2,3.2C-17.8-2.7-19.2-1.2-21-1.2z"/>
		<path class="st0" d="M-15.9-10.7c-0.6,0-1.2,0.5-1.2,1.2c0,0.6,0.5,1.2,1.2,1.2c0.6,0,1.2-0.5,1.2-1.2
			C-14.7-10.2-15.2-10.7-15.9-10.7z"/>
	</g>
</g>
<g>
	<g>
		<g>
			<path class="st0" d="M13.2,10.1c-0.5,0-0.8,0.4-0.8,0.8c0,0.5,0.4,0.8,0.8,0.8c0.5,0,0.8-0.4,0.8-0.8
				C14.1,10.5,13.7,10.1,13.2,10.1z"/>
		</g>
		<g>
			<path class="st0" d="M17.8,10.2c-0.4,0-0.8,0.3-0.8,0.8c0,0.4,0.3,0.8,0.8,0.8c0.4,0,0.8-0.3,0.8-0.8
				C18.6,10.5,18.2,10.2,17.8,10.2z"/>
		</g>
		<g>
			<g>
				<path class="st0" d="M18.5,3.6h-13C3.6,3.6,2,5.1,2,7.1v6.8c0,1.9,1.6,3.5,3.5,3.5h4.9l1.6,3.2l1.8-3.2h4.7
					c1.9,0,3.5-1.6,3.5-3.5V7.1C22,5.1,20.4,3.6,18.5,3.6z M6.3,12.8c-0.4,0-0.7-0.1-1-0.3v0.2H4V7.5h1.3v1.7C5.6,9.1,6,9,6.3,9
					c1.1,0,1.9,0.9,1.9,1.9C8.2,12,7.4,12.8,6.3,12.8z M10.4,9.3v3.5H9.1V9.3c0-0.8-0.5-0.8-0.5-0.8v-1c1.1,0,1.5,0.7,1.7,1.3
					C10.4,9,10.4,9.2,10.4,9.3L10.4,9.3z M13.2,13c-1.1,0-2-0.9-2-2c0-1.1,0.9-2,2-2c1.1,0,2,0.9,2,2C15.3,12.1,14.3,13,13.2,13z
					 M17.6,14.6v-1c0,0,1.1,0.1,1.1-0.5v-0.5c-0.3,0.2-0.6,0.3-0.9,0.3c-1,0-1.9-0.8-1.9-1.9c0-1,0.8-1.9,1.9-1.9
					c0.3,0,0.7,0.1,0.9,0.3V9.2h1.2v3.9C19.9,13.1,20.2,14.6,17.6,14.6z"/>
			</g>
		</g>
		<g>
			<path class="st0" d="M6.2,10.1c-0.4,0-0.8,0.3-0.8,0.8c0,0.4,0.4,0.8,0.8,0.8c0.4,0,0.8-0.3,0.8-0.8C7,10.5,6.6,10.1,6.2,10.1z"
				/>
		</g>
	</g>
</g>
</svg>
