<?xml version="1.0" encoding="utf-8"?>
<!-- Generator: Adobe Illustrator 26.0.0, SVG Export Plug-In . SVG Version: 6.00 Build 0)  -->
<svg version="1.1" id="Layer_1" xmlns="http://www.w3.org/2000/svg" xmlns:xlink="http://www.w3.org/1999/xlink" x="0px" y="0px"
	 viewBox="0 0 24 24" style="enable-background:new 0 0 24 24;" xml:space="preserve">
<style type="text/css">
	.st0{fill:#FFFFFF;}
</style>
<g>
	<g>
		<path class="st0" d="M16.2,3.1H7.8c-3,0-5.4,2.4-5.4,5.4v8.1c0,3,2.4,5.4,5.4,5.4h8.3c3,0,5.4-2.4,5.4-5.4V8.5
			C21.6,5.5,19.1,3.1,16.2,3.1z M19.8,16.6c0,2-1.6,3.7-3.7,3.7H7.8c-2,0-3.7-1.6-3.7-3.7V8.5c0-2,1.6-3.7,3.7-3.7h8.3
			c2,0,3.7,1.6,3.7,3.7V16.6z"/>
		<path class="st0" d="M12,7.6c-2.7,0-5,2.2-5,5c0,2.7,2.2,5,5,5c2.7,0,5-2.2,5-5C17,9.8,14.7,7.6,12,7.6z M12,15.8
			c-1.8,0-3.2-1.4-3.2-3.2c0-1.8,1.4-3.2,3.2-3.2c1.8,0,3.2,1.4,3.2,3.2C15.2,14.3,13.8,15.8,12,15.8z"/>
		<path class="st0" d="M17.1,6.3c-0.6,0-1.2,0.5-1.2,1.2c0,0.6,0.5,1.2,1.2,1.2c0.6,0,1.2-0.5,1.2-1.2C18.3,6.8,17.8,6.3,17.1,6.3z"
			/>
	</g>
</g>
</svg>
