<?xml version="1.0" encoding="utf-8"?>
<!-- Generator: Adobe Illustrator 26.0.0, SVG Export Plug-In . SVG Version: 6.00 Build 0)  -->
<svg version="1.1" id="Layer_1" xmlns="http://www.w3.org/2000/svg" xmlns:xlink="http://www.w3.org/1999/xlink" x="0px" y="0px"
	 viewBox="0 0 24 24" style="enable-background:new 0 0 24 24;" xml:space="preserve">
<style type="text/css">
	.st0{fill:#FFFFFF;}
	.st1{fill:none;stroke:#FFFFFF;stroke-width:2;stroke-linecap:round;stroke-linejoin:round;}
</style>
<g>
	<g>
		<path class="st0" d="M-16.8-13.9h-8.3c-3,0-5.4,2.4-5.4,5.4v8.1c0,3,2.4,5.4,5.4,5.4h8.3c3,0,5.4-2.4,5.4-5.4v-8.1
			C-11.4-11.5-13.9-13.9-16.8-13.9z M-13.2-0.4c0,2-1.6,3.7-3.7,3.7h-8.3c-2,0-3.7-1.6-3.7-3.7v-8.1c0-2,1.6-3.7,3.7-3.7h8.3
			c2,0,3.7,1.6,3.7,3.7V-0.4z"/>
		<path class="st0" d="M-21-9.4c-2.7,0-5,2.2-5,5c0,2.7,2.2,5,5,5c2.7,0,5-2.2,5-5C-16-7.2-18.3-9.4-21-9.4z M-21-1.2
			c-1.8,0-3.2-1.4-3.2-3.2c0-1.8,1.4-3.2,3.2-3.2c1.8,0,3.2,1.4,3.2,3.2C-17.8-2.7-19.2-1.2-21-1.2z"/>
		<path class="st0" d="M-15.9-10.7c-0.6,0-1.2,0.5-1.2,1.2c0,0.6,0.5,1.2,1.2,1.2c0.6,0,1.2-0.5,1.2-1.2
			C-14.7-10.2-15.2-10.7-15.9-10.7z"/>
	</g>
</g>
<g>
	<g>
		<g>
			<path class="st0" d="M-19.8,17.1c-0.5,0-0.8,0.4-0.8,0.8c0,0.5,0.4,0.8,0.8,0.8c0.5,0,0.8-0.4,0.8-0.8
				C-18.9,17.5-19.3,17.1-19.8,17.1z"/>
		</g>
		<g>
			<path class="st0" d="M-15.2,17.2c-0.4,0-0.8,0.3-0.8,0.8c0,0.4,0.3,0.8,0.8,0.8c0.4,0,0.8-0.3,0.8-0.8
				C-14.4,17.5-14.8,17.2-15.2,17.2z"/>
		</g>
		<g>
			<g>
				<path class="st0" d="M-14.5,10.6h-13c-1.9,0-3.5,1.6-3.5,3.5v6.8c0,1.9,1.6,3.5,3.5,3.5h4.9l1.6,3.2l1.8-3.2h4.7
					c1.9,0,3.5-1.6,3.5-3.5v-6.8C-11,12.1-12.6,10.6-14.5,10.6z M-26.7,19.8c-0.4,0-0.7-0.1-1-0.3v0.2H-29v-5.3h1.3v1.7
					c0.3-0.2,0.6-0.3,1-0.3c1.1,0,1.9,0.9,1.9,1.9C-24.8,19-25.6,19.8-26.7,19.8z M-22.6,16.3v3.5h-1.3v-3.5c0-0.8-0.5-0.8-0.5-0.8
					v-1c1.1,0,1.5,0.7,1.7,1.3C-22.6,16-22.6,16.2-22.6,16.3L-22.6,16.3z M-19.8,20c-1.1,0-2-0.9-2-2c0-1.1,0.9-2,2-2
					c1.1,0,2,0.9,2,2C-17.7,19.1-18.7,20-19.8,20z M-15.4,21.6v-1c0,0,1.1,0.1,1.1-0.5v-0.5c-0.3,0.2-0.6,0.3-0.9,0.3
					c-1,0-1.9-0.8-1.9-1.9c0-1,0.8-1.9,1.9-1.9c0.3,0,0.7,0.1,0.9,0.3v-0.2h1.2v3.9C-13.1,20.1-12.8,21.6-15.4,21.6z"/>
			</g>
		</g>
		<g>
			<path class="st0" d="M-26.8,17.1c-0.4,0-0.8,0.3-0.8,0.8c0,0.4,0.4,0.8,0.8,0.8c0.4,0,0.8-0.3,0.8-0.8
				C-26,17.5-26.4,17.1-26.8,17.1z"/>
		</g>
	</g>
</g>
<g>
	<g>
		<path class="st0" d="M-14.8-40v3.4h-1.9c-0.6,0-0.9,0.2-1.1,0.5c-0.1,0.2-0.2,0.6-0.2,1v1.6h3.2l-0.4,3.5h-2.8v10H-22v-10h-2v-3.5
			h2v-2.1c0-2.1,0.7-3.5,2.2-4.1c0.7-0.3,1.3-0.4,2-0.4H-14.8z"/>
	</g>
</g>
<g>
	<g>
		<g>
			<g>
				<path class="st0" d="M-11.5,38.3c0-1.7-1.4-3-3-3c0,0-2.8-0.3-6.7-0.3c-3.9,0-7,0.3-7,0.3c-1.7,0-3,1.4-3,3c0,0-0.1,1.7-0.1,3.7
					c0,2,0.1,3.6,0.1,3.6c0,1.7,1.4,3,3,3c0,0,3.9,0.3,6.8,0.3c2.9,0,6.9-0.3,6.9-0.3c1.7,0,3-1.4,3-3c0,0,0.1-1.6,0.1-3.6
					C-11.4,40-11.5,38.3-11.5,38.3z M-23,45V39l5,3L-23,45z"/>
			</g>
		</g>
	</g>
</g>
<path class="st1" d="M21.1,21.7v-2.2c0-1.2-0.5-2.3-1.3-3.1c-0.8-0.8-2-1.3-3.1-1.3H7.8c-1.2,0-2.3,0.5-3.1,1.3
	c-0.8,0.8-1.3,2-1.3,3.1v2.2"/>
<path class="st1" d="M12.2,10.6c2.5,0,4.4-2,4.4-4.4s-2-4.4-4.4-4.4c-2.5,0-4.4,2-4.4,4.4S9.7,10.6,12.2,10.6z"/>
</svg>
